# xmcd CD database file
#
# Track frame offsets:
#	150
#	39369
#	76900
#	119262
#	144999
#	177589
#	211679
#
# Disc length: 3522 seconds
#
# Revision: 2
# Processed by: cddbd v1.5.1PL0 Copyright (c) Steve Scherf et al.
# Submitted via: CDex 1.51
#
DISCID=540dc007
DTITLE=The Paul Spencer Band - Live! At The Pabst - Disc 2
DYEAR=2003
DGENRE=Jazz
TTITLE0=Watermelon Man
TTITLE1=Fly Me To the Moon
TTITLE2=Saturday Night Blues
TTITLE3=Don't Go To Strangers
TTITLE4=Tenderly
TTITLE5=I've Grown Accustomed To Her Face
TTITLE6=C-Jam Blues
EXTD=YEAR: 2003
EXTT0=
EXTT1=
EXTT2=
EXTT3=
EXTT4=
EXTT5=
EXTT6=
PLAYORDER=
